<svg xmlns="http://www.w3.org/2000/svg" width="1920" height="1080"><path d="M632,-203L693,-195L1045,-205Z" fill="#cb7f78" stroke="#cb7f78" stroke-width="1.51"/><path d="M111,-246L445,-227L1351,-266Z" fill="#bb6c63" stroke="#bb6c63" stroke-width="1.51"/><path d="M632,-203L1045,-205L1351,-266Z" fill="#c58686" stroke="#c58686" stroke-width="1.51"/><path d="M445,-227L632,-203L1351,-266Z" fill="#c37d79" stroke="#c37d79" stroke-width="1.51"/><path d="M1300,1283L1229,1301L1521,1273Z" fill="#787878" stroke="#787878" stroke-width="1.51"/><path d="M1229,1301L979,1323L1910,1331Z" fill="#717171" stroke="#717171" stroke-width="1.51"/><path d="M1521,1273L1229,1301L1910,1331Z" fill="#646464" stroke="#646464" stroke-width="1.51"/><path d="M2082,-70L1940,-56L2093,125Z" fill="#7f443b" stroke="#7f443b" stroke-width="1.51"/><path d="M1923,369L2111,528L2111,372Z" fill="#91857f" stroke="#91857f" stroke-width="1.51"/><path d="M2111,528L1952,710L2118,702Z" fill="#868686" stroke="#868686" stroke-width="1.51"/><path d="M1977,1157L2098,1273L2125,1160Z" fill="#3d3d3d" stroke="#3d3d3d" stroke-width="1.51"/><path d="M1983,266L2111,372L2127,256Z" fill="#8c7265" stroke="#8c7265" stroke-width="1.51"/><path d="M2093,125L1983,266L2127,256Z" fill="#8b6757" stroke="#8b6757" stroke-width="1.51"/><path d="M2111,372L2111,528L2127,256Z" fill="#887971" stroke="#887971" stroke-width="1.51"/><path d="M1634,-233L1823,-225L2132,-245Z" fill="#713c3d" stroke="#713c3d" stroke-width="1.51"/><path d="M1351,-266L1634,-233L2132,-245Z" fill="#834d4f" stroke="#834d4f" stroke-width="1.51"/><path d="M1823,-225L1921,-185L2132,-245Z" fill="#683234" stroke="#683234" stroke-width="1.51"/><path d="M1921,-185L2082,-70L2132,-245Z" fill="#692c2d" stroke="#692c2d" stroke-width="1.51"/><path d="M2093,125L2127,256L2132,-245Z" fill="#784137" stroke="#784137" stroke-width="1.51"/><path d="M2082,-70L2093,125L2132,-245Z" fill="#71322e" stroke="#71322e" stroke-width="1.51"/><path d="M1916,788L1913,1045L2134,964Z" fill="#707070" stroke="#707070" stroke-width="1.51"/><path d="M1977,1157L2125,1160L2134,964Z" fill="#4d4d4d" stroke="#4d4d4d" stroke-width="1.51"/><path d="M1913,1045L1977,1157L2134,964Z" fill="#5b5b5b" stroke="#5b5b5b" stroke-width="1.51"/><path d="M2118,702L1952,710L2135,800Z" fill="#7c7c7c" stroke="#7c7c7c" stroke-width="1.51"/><path d="M1952,710L1916,788L2135,800Z" fill="#828282" stroke="#828282" stroke-width="1.51"/><path d="M2127,256L2111,528L2135,800Z" fill="#878685" stroke="#878685" stroke-width="1.51"/><path d="M2111,528L2118,702L2135,800Z" fill="#7c7c7c" stroke="#7c7c7c" stroke-width="1.51"/><path d="M2132,-245L2127,256L2135,800Z" fill="#84675a" stroke="#84675a" stroke-width="1.51"/><path d="M1916,788L2134,964L2135,800Z" fill="#727272" stroke="#727272" stroke-width="1.51"/><path d="M1940,-56L1912,112L2093,125Z" fill="#8c5449" stroke="#8c5449" stroke-width="1.51"/><path d="M1886,532L1952,710L2111,528Z" fill="#959595" stroke="#959595" stroke-width="1.51"/><path d="M1923,369L1886,532L2111,528Z" fill="#9a9490" stroke="#9a9490" stroke-width="1.51"/><path d="M1983,266L1923,369L2111,372Z" fill="#968075" stroke="#968075" stroke-width="1.51"/><path d="M1921,-185L1940,-56L2082,-70Z" fill="#7d3a37" stroke="#7d3a37" stroke-width="1.51"/><path d="M1912,112L1983,266L2093,125Z" fill="#926758" stroke="#926758" stroke-width="1.51"/><path d="M1977,1157L1910,1331L2098,1273Z" fill="#3c3c3c" stroke="#3c3c3c" stroke-width="1.51"/><path d="M379,1280L102,1310L779,1322Z" fill="#885e4f" stroke="#885e4f" stroke-width="1.51"/><path d="M1775,1244L1521,1273L1910,1331Z" fill="#545454" stroke="#545454" stroke-width="1.51"/><path d="M1781,1188L1775,1244L1910,1331Z" fill="#4f4f4f" stroke="#4f4f4f" stroke-width="1.51"/><path d="M1772,850L1913,1045L1916,788Z" fill="#848484" stroke="#848484" stroke-width="1.51"/><path d="M1839,-35L1912,112L1940,-56Z" fill="#92554c" stroke="#92554c" stroke-width="1.51"/><path d="M1886,532L1816,699L1952,710Z" fill="#9d9d9d" stroke="#9d9d9d" stroke-width="1.51"/><path d="M1781,1188L1910,1331L1977,1157Z" fill="#4c4c4c" stroke="#4c4c4c" stroke-width="1.51"/><path d="M1749,212L1923,369L1983,266Z" fill="#a4877a" stroke="#a4877a" stroke-width="1.51"/><path d="M1912,112L1749,212L1983,266Z" fill="#a37a6a" stroke="#a37a6a" stroke-width="1.51"/><path d="M1913,1045L1781,1188L1977,1157Z" fill="#5c5c5c" stroke="#5c5c5c" stroke-width="1.51"/><path d="M1600,1238L1521,1273L1775,1244Z" fill="#656565" stroke="#656565" stroke-width="1.51"/><path d="M1772,850L1758,1022L1913,1045Z" fill="#808080" stroke="#808080" stroke-width="1.51"/><path d="M1832,525L1886,532L1923,369Z" fill="#a7a09c" stroke="#a7a09c" stroke-width="1.51"/><path d="M1921,-185L1839,-35L1940,-56Z" fill="#894641" stroke="#894641" stroke-width="1.51"/><path d="M1816,699L1916,788L1952,710Z" fill="#949494" stroke="#949494" stroke-width="1.51"/><path d="M1749,212L1743,367L1923,369Z" fill="#b0978a" stroke="#b0978a" stroke-width="1.51"/><path d="M1832,525L1816,699L1886,532Z" fill="#a7a7a7" stroke="#a7a7a7" stroke-width="1.51"/><path d="M1839,-35L1767,103L1912,112Z" fill="#9f6659" stroke="#9f6659" stroke-width="1.51"/><path d="M1767,103L1749,212L1912,112Z" fill="#a9796a" stroke="#a9796a" stroke-width="1.51"/><path d="M1758,1022L1781,1188L1913,1045Z" fill="#6d6d6d" stroke="#6d6d6d" stroke-width="1.51"/><path d="M1823,-225L1839,-35L1921,-185Z" fill="#864441" stroke="#864441" stroke-width="1.51"/><path d="M1743,367L1832,525L1923,369Z" fill="#aca099" stroke="#aca099" stroke-width="1.51"/><path d="M1816,699L1772,850L1916,788Z" fill="#969696" stroke="#969696" stroke-width="1.51"/><path d="M693,-195L939,-189L1045,-205Z" fill="#ce8783" stroke="#ce8783" stroke-width="1.51"/><path d="M1681,892L1758,1022L1772,850Z" fill="#919191" stroke="#919191" stroke-width="1.51"/><path d="M1589,634L1816,699L1832,525Z" fill="#b2b2b2" stroke="#b2b2b2" stroke-width="1.51"/><path d="M1598,526L1589,634L1832,525Z" fill="#c0c0c0" stroke="#c0c0c0" stroke-width="1.51"/><path d="M1666,89L1767,103L1839,-35Z" fill="#a96e62" stroke="#a96e62" stroke-width="1.51"/><path d="M1584,-60L1666,89L1839,-35Z" fill="#ad6d63" stroke="#ad6d63" stroke-width="1.51"/><path d="M1823,-225L1634,-233L1839,-35Z" fill="#8f4d4c" stroke="#8f4d4c" stroke-width="1.51"/><path d="M1634,-233L1584,-60L1839,-35Z" fill="#a55d58" stroke="#a55d58" stroke-width="1.51"/><path d="M1743,367L1598,526L1832,525Z" fill="#bbb4b0" stroke="#bbb4b0" stroke-width="1.51"/><path d="M1758,1022L1658,1183L1781,1188Z" fill="#6f6f6f" stroke="#6f6f6f" stroke-width="1.51"/><path d="M1589,634L1772,850L1816,699Z" fill="#aaaaaa" stroke="#aaaaaa" stroke-width="1.51"/><path d="M1606,388L1598,526L1743,367Z" fill="#c4b9b2" stroke="#c4b9b2" stroke-width="1.51"/><path d="M1581,276L1743,367L1749,212Z" fill="#bea193" stroke="#bea193" stroke-width="1.51"/><path d="M1681,892L1638,935L1758,1022Z" fill="#929292" stroke="#929292" stroke-width="1.51"/><path d="M1666,89L1749,212L1767,103Z" fill="#b38272" stroke="#b38272" stroke-width="1.51"/><path d="M1589,634L1681,892L1772,850Z" fill="#a9a9a9" stroke="#a9a9a9" stroke-width="1.51"/><path d="M1658,1183L1775,1244L1781,1188Z" fill="#616161" stroke="#616161" stroke-width="1.51"/><path d="M1658,1183L1600,1238L1775,1244Z" fill="#666666" stroke="#666666" stroke-width="1.51"/><path d="M1638,935L1516,1018L1658,1183Z" fill="#8d8d8d" stroke="#8d8d8d" stroke-width="1.51"/><path d="M1581,276L1606,388L1743,367Z" fill="#c5afa4" stroke="#c5afa4" stroke-width="1.51"/><path d="M1638,935L1658,1183L1758,1022Z" fill="#848484" stroke="#848484" stroke-width="1.51"/><path d="M1666,89L1581,276L1749,212Z" fill="#bf9583" stroke="#bf9583" stroke-width="1.51"/><path d="M1527,-160L1584,-60L1634,-233Z" fill="#a86360" stroke="#a86360" stroke-width="1.51"/><path d="M1516,1018L1473,1110L1658,1183Z" fill="#888888" stroke="#888888" stroke-width="1.51"/><path d="M1538,127L1581,276L1666,89Z" fill="#c69686" stroke="#c69686" stroke-width="1.51"/><path d="M1444,785L1638,935L1681,892Z" fill="#aaaaaa" stroke="#aaaaaa" stroke-width="1.51"/><path d="M1589,634L1444,785L1681,892Z" fill="#b7b7b7" stroke="#b7b7b7" stroke-width="1.51"/><path d="M1584,-60L1538,127L1666,89Z" fill="#be8074" stroke="#be8074" stroke-width="1.51"/><path d="M1437,712L1444,785L1589,634Z" fill="#c7c7c7" stroke="#c7c7c7" stroke-width="1.51"/><path d="M1473,1110L1600,1238L1658,1183Z" fill="#787878" stroke="#787878" stroke-width="1.51"/><path d="M1491,-42L1538,127L1584,-60Z" fill="#c07f74" stroke="#c07f74" stroke-width="1.51"/><path d="M1351,-266L1527,-160L1634,-233Z" fill="#a06464" stroke="#a06464" stroke-width="1.51"/><path d="M1444,785L1516,1018L1638,935Z" fill="#a9a9a9" stroke="#a9a9a9" stroke-width="1.51"/><path d="M1538,127L1491,262L1581,276Z" fill="#cfa796" stroke="#cfa796" stroke-width="1.51"/><path d="M1459,570L1589,634L1598,526Z" fill="#cdcdcd" stroke="#cdcdcd" stroke-width="1.51"/><path d="M1477,353L1459,570L1598,526Z" fill="#d4cecb" stroke="#d4cecb" stroke-width="1.51"/><path d="M1473,1110L1521,1273L1600,1238Z" fill="#777777" stroke="#777777" stroke-width="1.51"/><path d="M1477,353L1598,526L1606,388Z" fill="#cec2bb" stroke="#cec2bb" stroke-width="1.51"/><path d="M1581,276L1477,353L1606,388Z" fill="#cfb8ad" stroke="#cfb8ad" stroke-width="1.51"/><path d="M1491,262L1477,353L1581,276Z" fill="#d2b5a8" stroke="#d2b5a8" stroke-width="1.51"/><path d="M1527,-160L1491,-42L1584,-60Z" fill="#b87069" stroke="#b87069" stroke-width="1.51"/><path d="M1459,570L1437,712L1589,634Z" fill="#cdcdcd" stroke="#cdcdcd" stroke-width="1.51"/><path d="M1331,487L1459,570L1477,353Z" fill="#ded6d2" stroke="#ded6d2" stroke-width="1.51"/><path d="M1344,34L1297,248L1491,262Z" fill="#ddaf9e" stroke="#ddaf9e" stroke-width="1.51"/><path d="M1444,785L1322,886L1516,1018Z" fill="#b7b7b7" stroke="#b7b7b7" stroke-width="1.51"/><path d="M1473,1110L1324,1167L1521,1273Z" fill="#858585" stroke="#858585" stroke-width="1.51"/><path d="M1491,-42L1344,34L1538,127Z" fill="#cc8c80" stroke="#cc8c80" stroke-width="1.51"/><path d="M1344,34L1491,262L1538,127Z" fill="#d3a090" stroke="#d3a090" stroke-width="1.51"/><path d="M1334,392L1331,487L1477,353Z" fill="#e1d3cb" stroke="#e1d3cb" stroke-width="1.51"/><path d="M1322,886L1307,1030L1516,1018Z" fill="#adadad" stroke="#adadad" stroke-width="1.51"/><path d="M1334,-85L1491,-42L1527,-160Z" fill="#c17771" stroke="#c17771" stroke-width="1.51"/><path d="M1351,-266L1334,-85L1527,-160Z" fill="#b6726f" stroke="#b6726f" stroke-width="1.51"/><path d="M1324,1167L1300,1283L1521,1273Z" fill="#7e7e7e" stroke="#7e7e7e" stroke-width="1.51"/><path d="M1307,1030L1473,1110L1516,1018Z" fill="#9e9e9e" stroke="#9e9e9e" stroke-width="1.51"/><path d="M1297,248L1477,353L1491,262Z" fill="#ddbeb0" stroke="#ddbeb0" stroke-width="1.51"/><path d="M1334,-85L1344,34L1491,-42Z" fill="#cd877d" stroke="#cd877d" stroke-width="1.51"/><path d="M1337,727L1437,712L1459,570Z" fill="#d3d3d3" stroke="#d3d3d3" stroke-width="1.51"/><path d="M1297,248L1334,392L1477,353Z" fill="#e1c9bd" stroke="#e1c9bd" stroke-width="1.51"/><path d="M1307,1030L1324,1167L1473,1110Z" fill="#999999" stroke="#999999" stroke-width="1.51"/><path d="M910,1315L779,1322L979,1323Z" fill="#8b8683" stroke="#8b8683" stroke-width="1.51"/><path d="M1331,487L1337,727L1459,570Z" fill="#dcdcdc" stroke="#dcdcdc" stroke-width="1.51"/><path d="M1437,712L1337,727L1444,785Z" fill="#cbcbcb" stroke="#cbcbcb" stroke-width="1.51"/><path d="M1337,727L1322,886L1444,785Z" fill="#c7c7c7" stroke="#c7c7c7" stroke-width="1.51"/><path d="M1156,554L1193,673L1331,487Z" fill="#eaeaea" stroke="#eaeaea" stroke-width="1.51"/><path d="M1238,819L1322,886L1337,727Z" fill="#cccccc" stroke="#cccccc" stroke-width="1.51"/><path d="M1331,487L1193,673L1337,727Z" fill="#e0e0e0" stroke="#e0e0e0" stroke-width="1.51"/><path d="M1155,187L1297,248L1344,34Z" fill="#e5b3a2" stroke="#e5b3a2" stroke-width="1.51"/><path d="M1138,33L1155,187L1344,34Z" fill="#e5a899" stroke="#e5a899" stroke-width="1.51"/><path d="M1334,-85L1200,-88L1344,34Z" fill="#d38b82" stroke="#d38b82" stroke-width="1.51"/><path d="M1045,-205L1137,-162L1351,-266Z" fill="#be7e7d" stroke="#be7e7d" stroke-width="1.51"/><path d="M1200,-88L1334,-85L1351,-266Z" fill="#c67c78" stroke="#c67c78" stroke-width="1.51"/><path d="M1137,-162L1200,-88L1351,-266Z" fill="#c47e7b" stroke="#c47e7b" stroke-width="1.51"/><path d="M1147,946L1307,1030L1322,886Z" fill="#bbbbbb" stroke="#bbbbbb" stroke-width="1.51"/><path d="M1145,430L1331,487L1334,392Z" fill="#eaded9" stroke="#eaded9" stroke-width="1.51"/><path d="M1297,248L1145,430L1334,392Z" fill="#ebd6cb" stroke="#ebd6cb" stroke-width="1.51"/><path d="M1200,-88L1138,33L1344,34Z" fill="#dc978c" stroke="#dc978c" stroke-width="1.51"/><path d="M1307,1030L1130,1138L1324,1167Z" fill="#9f9f9f" stroke="#9f9f9f" stroke-width="1.51"/><path d="M1193,673L1238,819L1337,727Z" fill="#d7d7d7" stroke="#d7d7d7" stroke-width="1.51"/><path d="M1229,1301L1300,1283L1324,1167Z" fill="#848484" stroke="#848484" stroke-width="1.51"/><path d="M1145,430L1156,554L1331,487Z" fill="#eee9e6" stroke="#eee9e6" stroke-width="1.51"/><path d="M1238,819L1147,946L1322,886Z" fill="#c8c8c8" stroke="#c8c8c8" stroke-width="1.51"/><path d="M1130,1138L1229,1301L1324,1167Z" fill="#919191" stroke="#919191" stroke-width="1.51"/><path d="M1155,187L1078,363L1297,248Z" fill="#f0cdbe" stroke="#f0cdbe" stroke-width="1.51"/><path d="M1078,363L1145,430L1297,248Z" fill="#f1dbcf" stroke="#f1dbcf" stroke-width="1.51"/><path d="M1147,946L1130,1138L1307,1030Z" fill="#b2b2b2" stroke="#b2b2b2" stroke-width="1.51"/><path d="M1074,237L1078,363L1155,187Z" fill="#f5d1c1" stroke="#f5d1c1" stroke-width="1.51"/><path d="M1130,1138L1048,1182L1229,1301Z" fill="#969696" stroke="#969696" stroke-width="1.51"/><path d="M1064,944L1147,946L1238,819Z" fill="#cbcbcb" stroke="#cbcbcb" stroke-width="1.51"/><path d="M979,784L1064,944L1238,819Z" fill="#d6d6d6" stroke="#d6d6d6" stroke-width="1.51"/><path d="M1193,673L979,784L1238,819Z" fill="#dddddd" stroke="#dddddd" stroke-width="1.51"/><path d="M1048,1182L979,1323L1229,1301Z" fill="#8d8d8d" stroke="#8d8d8d" stroke-width="1.51"/><path d="M1064,944L1130,1138L1147,946Z" fill="#bcbcbc" stroke="#bcbcbc" stroke-width="1.51"/><path d="M983,642L979,784L1193,673Z" fill="#eaeaea" stroke="#eaeaea" stroke-width="1.51"/><path d="M1009,-39L1138,33L1200,-88Z" fill="#e29a90" stroke="#e29a90" stroke-width="1.51"/><path d="M1137,-162L1009,-39L1200,-88Z" fill="#dc8f88" stroke="#dc8f88" stroke-width="1.51"/><path d="M1138,33L1024,108L1155,187Z" fill="#edb4a4" stroke="#edb4a4" stroke-width="1.51"/><path d="M1156,554L983,642L1193,673Z" fill="#ededed" stroke="#ededed" stroke-width="1.51"/><path d="M1064,944L1048,1182L1130,1138Z" fill="#afafaf" stroke="#afafaf" stroke-width="1.51"/><path d="M1024,108L1074,237L1155,187Z" fill="#f4c3b2" stroke="#f4c3b2" stroke-width="1.51"/><path d="M1145,430L995,533L1156,554Z" fill="#f6f2f0" stroke="#f6f2f0" stroke-width="1.51"/><path d="M995,533L983,642L1156,554Z" fill="#f6f6f6" stroke="#f6f6f6" stroke-width="1.51"/><path d="M1045,-205L1009,-39L1137,-162Z" fill="#d98d87" stroke="#d98d87" stroke-width="1.51"/><path d="M1078,363L995,533L1145,430Z" fill="#f8ede7" stroke="#f8ede7" stroke-width="1.51"/><path d="M1009,-39L1024,108L1138,33Z" fill="#eba89b" stroke="#eba89b" stroke-width="1.51"/><path d="M907,978L1048,1182L1064,944Z" fill="#bebebe" stroke="#bebebe" stroke-width="1.51"/><path d="M939,-189L1009,-39L1045,-205Z" fill="#db8f8a" stroke="#db8f8a" stroke-width="1.51"/><path d="M907,978L879,1159L1048,1182Z" fill="#b3b2b1" stroke="#b3b2b1" stroke-width="1.51"/><path d="M1024,108L909,202L1074,237Z" fill="#f9c9b7" stroke="#f9c9b7" stroke-width="1.51"/><path d="M909,202L911,339L1074,237Z" fill="#fed9c9" stroke="#fed9c9" stroke-width="1.51"/><path d="M1074,237L911,339L1078,363Z" fill="#fbdfd2" stroke="#fbdfd2" stroke-width="1.51"/><path d="M911,339L995,533L1078,363Z" fill="#fceee6" stroke="#fceee6" stroke-width="1.51"/><path d="M979,784L907,978L1064,944Z" fill="#d5d5d5" stroke="#d5d5d5" stroke-width="1.51"/><path d="M879,1159L910,1315L979,1323Z" fill="#959291" stroke="#959291" stroke-width="1.51"/><path d="M879,1159L979,1323L1048,1182Z" fill="#9d9d9d" stroke="#9d9d9d" stroke-width="1.51"/><path d="M1009,-39L848,102L1024,108Z" fill="#f3b2a4" stroke="#f3b2a4" stroke-width="1.51"/><path d="M837,817L907,978L979,784Z" fill="#ddd9d7" stroke="#ddd9d7" stroke-width="1.51"/><path d="M917,637L979,784L983,642Z" fill="#f1f1f1" stroke="#f1f1f1" stroke-width="1.51"/><path d="M911,339L880,544L995,533Z" fill="#fff5f0" stroke="#fff5f0" stroke-width="1.51"/><path d="M841,-32L848,102L1009,-39Z" fill="#eea698" stroke="#eea698" stroke-width="1.51"/><path d="M848,102L909,202L1024,108Z" fill="#f9c0ae" stroke="#f9c0ae" stroke-width="1.51"/><path d="M917,637L983,642L995,533Z" fill="#f8f8f8" stroke="#f8f8f8" stroke-width="1.51"/><path d="M939,-189L841,-32L1009,-39Z" fill="#e6978f" stroke="#e6978f" stroke-width="1.51"/><path d="M880,544L917,637L995,533Z" fill="#fcfaf9" stroke="#fcfaf9" stroke-width="1.51"/><path d="M917,637L837,817L979,784Z" fill="#eae7e4" stroke="#eae7e4" stroke-width="1.51"/><path d="M769,1132L879,1159L907,978Z" fill="#b7afaa" stroke="#b7afaa" stroke-width="1.51"/><path d="M761,409L880,544L911,339Z" fill="#ffebdf" stroke="#ffebdf" stroke-width="1.51"/><path d="M762,639L837,817L917,637Z" fill="#f0e7e2" stroke="#f0e7e2" stroke-width="1.51"/><path d="M693,-195L841,-32L939,-189Z" fill="#dc887e" stroke="#dc887e" stroke-width="1.51"/><path d="M837,817L699,987L907,978Z" fill="#d3c8c2" stroke="#d3c8c2" stroke-width="1.51"/><path d="M699,987L769,1132L907,978Z" fill="#c2b6af" stroke="#c2b6af" stroke-width="1.51"/><path d="M879,1159L779,1322L910,1315Z" fill="#958e8a" stroke="#958e8a" stroke-width="1.51"/><path d="M909,202L765,189L911,339Z" fill="#fdd0bb" stroke="#fdd0bb" stroke-width="1.51"/><path d="M765,189L761,409L911,339Z" fill="#fed7c4" stroke="#fed7c4" stroke-width="1.51"/><path d="M880,544L762,639L917,637Z" fill="#f9f1ec" stroke="#f9f1ec" stroke-width="1.51"/><path d="M848,102L789,125L909,202Z" fill="#f8bba7" stroke="#f8bba7" stroke-width="1.51"/><path d="M789,125L765,189L909,202Z" fill="#f9bfa8" stroke="#f9bfa8" stroke-width="1.51"/><path d="M693,865L699,987L837,817Z" fill="#d8c9c0" stroke="#d8c9c0" stroke-width="1.51"/><path d="M769,1132L779,1322L879,1159Z" fill="#a09691" stroke="#a09691" stroke-width="1.51"/><path d="M690,547L762,639L880,544Z" fill="#fbeee6" stroke="#fbeee6" stroke-width="1.51"/><path d="M761,409L690,547L880,544Z" fill="#ffece2" stroke="#ffece2" stroke-width="1.51"/><path d="M639,1239L379,1280L779,1322Z" fill="#917669" stroke="#917669" stroke-width="1.51"/><path d="M762,639L693,865L837,817Z" fill="#e7d9d1" stroke="#e7d9d1" stroke-width="1.51"/><path d="M694,-9L789,125L841,-32Z" fill="#ed9f8c" stroke="#ed9f8c" stroke-width="1.51"/><path d="M693,-195L694,-9L841,-32Z" fill="#e28b7b" stroke="#e28b7b" stroke-width="1.51"/><path d="M841,-32L789,125L848,102Z" fill="#f2aa96" stroke="#f2aa96" stroke-width="1.51"/><path d="M769,1132L639,1239L779,1322Z" fill="#9b8c83" stroke="#9b8c83" stroke-width="1.51"/><path d="M590,243L569,383L761,409Z" fill="#fccdb5" stroke="#fccdb5" stroke-width="1.51"/><path d="M584,677L693,865L762,639Z" fill="#ecd7cb" stroke="#ecd7cb" stroke-width="1.51"/><path d="M590,243L761,409L765,189Z" fill="#fbcab1" stroke="#fbcab1" stroke-width="1.51"/><path d="M636,87L765,189L789,125Z" fill="#f4b198" stroke="#f4b198" stroke-width="1.51"/><path d="M694,-9L636,87L789,125Z" fill="#efa18a" stroke="#efa18a" stroke-width="1.51"/><path d="M699,987L614,1126L769,1132Z" fill="#b8a49a" stroke="#b8a49a" stroke-width="1.51"/><path d="M584,677L570,824L693,865Z" fill="#e5c8bb" stroke="#e5c8bb" stroke-width="1.51"/><path d="M629,530L690,547L761,409Z" fill="#ffe5d7" stroke="#ffe5d7" stroke-width="1.51"/><path d="M614,1126L639,1239L769,1132Z" fill="#a79388" stroke="#a79388" stroke-width="1.51"/><path d="M636,87L590,243L765,189Z" fill="#f6b296" stroke="#f6b296" stroke-width="1.51"/><path d="M569,383L629,530L761,409Z" fill="#fedac8" stroke="#fedac8" stroke-width="1.51"/><path d="M690,547L584,677L762,639Z" fill="#f7e1d5" stroke="#f7e1d5" stroke-width="1.51"/><path d="M629,530L584,677L690,547Z" fill="#fbdfd2" stroke="#fbdfd2" stroke-width="1.51"/><path d="M570,824L589,978L693,865Z" fill="#d8bcaf" stroke="#d8bcaf" stroke-width="1.51"/><path d="M693,-195L632,-203L694,-9Z" fill="#d97b6d" stroke="#d97b6d" stroke-width="1.51"/><path d="M632,-203L569,-37L694,-9Z" fill="#de7e6c" stroke="#de7e6c" stroke-width="1.51"/><path d="M693,865L589,978L699,987Z" fill="#d0b8ac" stroke="#d0b8ac" stroke-width="1.51"/><path d="M589,978L614,1126L699,987Z" fill="#c1a89b" stroke="#c1a89b" stroke-width="1.51"/><path d="M569,-37L636,87L694,-9Z" fill="#e88f78" stroke="#e88f78" stroke-width="1.51"/><path d="M111,-246L338,-199L445,-227Z" fill="#b0423d" stroke="#b0423d" stroke-width="1.51"/><path d="M569,383L462,429L629,530Z" fill="#fdd0bb" stroke="#fdd0bb" stroke-width="1.51"/><path d="M462,-68L569,-37L632,-203Z" fill="#da7260" stroke="#da7260" stroke-width="1.51"/><path d="M445,-227L462,-68L632,-203Z" fill="#cb6657" stroke="#cb6657" stroke-width="1.51"/><path d="M456,114L590,243L636,87Z" fill="#f1a283" stroke="#f1a283" stroke-width="1.51"/><path d="M569,-37L456,114L636,87Z" fill="#e98e73" stroke="#e98e73" stroke-width="1.51"/><path d="M614,1126L488,1163L639,1239Z" fill="#a48779" stroke="#a48779" stroke-width="1.51"/><path d="M488,1163L379,1280L639,1239Z" fill="#997565" stroke="#997565" stroke-width="1.51"/><path d="M392,562L584,677L629,530Z" fill="#fad3c3" stroke="#fad3c3" stroke-width="1.51"/><path d="M456,114L447,191L590,243Z" fill="#f2a280" stroke="#f2a280" stroke-width="1.51"/><path d="M589,978L488,1163L614,1126Z" fill="#b59586" stroke="#b59586" stroke-width="1.51"/><path d="M392,562L421,663L584,677Z" fill="#f4c7b5" stroke="#f4c7b5" stroke-width="1.51"/><path d="M462,429L392,562L629,530Z" fill="#fdd0bc" stroke="#fdd0bc" stroke-width="1.51"/><path d="M570,824L457,864L589,978Z" fill="#d8b3a4" stroke="#d8b3a4" stroke-width="1.51"/><path d="M447,191L462,429L569,383Z" fill="#f9bb9e" stroke="#f9bb9e" stroke-width="1.51"/><path d="M462,-68L456,114L569,-37Z" fill="#e27e64" stroke="#e27e64" stroke-width="1.51"/><path d="M421,663L457,864L570,824Z" fill="#e4baa8" stroke="#e4baa8" stroke-width="1.51"/><path d="M421,663L570,824L584,677Z" fill="#ecc6b5" stroke="#ecc6b5" stroke-width="1.51"/><path d="M425,939L488,1163L589,978Z" fill="#c19a89" stroke="#c19a89" stroke-width="1.51"/><path d="M457,864L425,939L589,978Z" fill="#d1a897" stroke="#d1a897" stroke-width="1.51"/><path d="M447,191L569,383L590,243Z" fill="#f8b597" stroke="#f8b597" stroke-width="1.51"/><path d="M275,986L327,1160L425,939Z" fill="#ba8576" stroke="#ba8576" stroke-width="1.51"/><path d="M421,663L322,784L457,864Z" fill="#e3b0a0" stroke="#e3b0a0" stroke-width="1.51"/><path d="M447,191L267,250L462,429Z" fill="#f3a688" stroke="#f3a688" stroke-width="1.51"/><path d="M267,250L267,428L462,429Z" fill="#f2aa91" stroke="#f2aa91" stroke-width="1.51"/><path d="M315,95L456,114L462,-68Z" fill="#e17a60" stroke="#e17a60" stroke-width="1.51"/><path d="M445,-227L338,-199L462,-68Z" fill="#c5594c" stroke="#c5594c" stroke-width="1.51"/><path d="M425,939L327,1160L488,1163Z" fill="#b18474" stroke="#b18474" stroke-width="1.51"/><path d="M327,1160L379,1280L488,1163Z" fill="#9a6d5e" stroke="#9a6d5e" stroke-width="1.51"/><path d="M293,490L392,562L462,429Z" fill="#f8bfac" stroke="#f8bfac" stroke-width="1.51"/><path d="M267,428L293,490L462,429Z" fill="#f5b4a0" stroke="#f5b4a0" stroke-width="1.51"/><path d="M338,-199L243,-58L462,-68Z" fill="#cd5547" stroke="#cd5547" stroke-width="1.51"/><path d="M243,-58L315,95L462,-68Z" fill="#d76552" stroke="#d76552" stroke-width="1.51"/><path d="M327,1160L325,1249L379,1280Z" fill="#926153" stroke="#926153" stroke-width="1.51"/><path d="M315,95L447,191L456,114Z" fill="#e98b6d" stroke="#e98b6d" stroke-width="1.51"/><path d="M322,784L425,939L457,864Z" fill="#d8a696" stroke="#d8a696" stroke-width="1.51"/><path d="M325,1249L102,1310L379,1280Z" fill="#854f43" stroke="#854f43" stroke-width="1.51"/><path d="M315,95L267,250L447,191Z" fill="#ea8b6d" stroke="#ea8b6d" stroke-width="1.51"/><path d="M322,784L275,986L425,939Z" fill="#ce9889" stroke="#ce9889" stroke-width="1.51"/><path d="M392,562L236,718L421,663Z" fill="#edb6a6" stroke="#edb6a6" stroke-width="1.51"/><path d="M236,718L322,784L421,663Z" fill="#e5ab9c" stroke="#e5ab9c" stroke-width="1.51"/><path d="M293,490L236,718L392,562Z" fill="#f1b5a6" stroke="#f1b5a6" stroke-width="1.51"/><path d="M97,577L236,718L293,490Z" fill="#eba79b" stroke="#eba79b" stroke-width="1.51"/><path d="M95,796L275,986L322,784Z" fill="#d09083" stroke="#d09083" stroke-width="1.51"/><path d="M275,986L177,1008L327,1160Z" fill="#b17669" stroke="#b17669" stroke-width="1.51"/><path d="M111,-246L243,-58L338,-199Z" fill="#b83c39" stroke="#b83c39" stroke-width="1.51"/><path d="M95,796L177,1008L275,986Z" fill="#c28074" stroke="#c28074" stroke-width="1.51"/><path d="M243,-58L123,66L315,95Z" fill="#d45d4b" stroke="#d45d4b" stroke-width="1.51"/><path d="M119,187L267,250L315,95Z" fill="#e37b61" stroke="#e37b61" stroke-width="1.51"/><path d="M236,718L95,796L322,784Z" fill="#da988c" stroke="#da988c" stroke-width="1.51"/><path d="M110,1137L325,1249L327,1160Z" fill="#975e52" stroke="#975e52" stroke-width="1.51"/><path d="M177,1008L110,1137L327,1160Z" fill="#a4665c" stroke="#a4665c" stroke-width="1.51"/><path d="M110,1137L102,1310L325,1249Z" fill="#894d43" stroke="#894d43" stroke-width="1.51"/><path d="M159,421L267,428L267,250Z" fill="#ed9c85" stroke="#ed9c85" stroke-width="1.51"/><path d="M123,66L119,187L315,95Z" fill="#d96854" stroke="#d96854" stroke-width="1.51"/><path d="M111,-246L87,-108L243,-58Z" fill="#b93234" stroke="#b93234" stroke-width="1.51"/><path d="M267,428L159,421L293,490Z" fill="#f0a693" stroke="#f0a693" stroke-width="1.51"/><path d="M159,421L97,577L293,490Z" fill="#eea596" stroke="#eea596" stroke-width="1.51"/><path d="M119,187L159,421L267,250Z" fill="#e58971" stroke="#e58971" stroke-width="1.51"/><path d="M95,796L40,952L177,1008Z" fill="#bf7970" stroke="#bf7970" stroke-width="1.51"/><path d="M97,577L81,701L236,718Z" fill="#e0998e" stroke="#e0998e" stroke-width="1.51"/><path d="M87,-108L123,66L243,-58Z" fill="#c7463e" stroke="#c7463e" stroke-width="1.51"/><path d="M119,187L16,248L159,421Z" fill="#e07f6a" stroke="#e07f6a" stroke-width="1.51"/><path d="M81,701L95,796L236,718Z" fill="#d89288" stroke="#d89288" stroke-width="1.51"/><path d="M87,-108L28,-46L123,66Z" fill="#c23d39" stroke="#c23d39" stroke-width="1.51"/><path d="M16,248L-48,385L159,421Z" fill="#e08373" stroke="#e08373" stroke-width="1.51"/><path d="M18,520L97,577L159,421Z" fill="#e89b90" stroke="#e89b90" stroke-width="1.51"/><path d="M35,1124L110,1137L177,1008Z" fill="#a05e56" stroke="#a05e56" stroke-width="1.51"/><path d="M40,952L35,1124L177,1008Z" fill="#ab665e" stroke="#ab665e" stroke-width="1.51"/><path d="M14,827L40,952L95,796Z" fill="#c57b74" stroke="#c57b74" stroke-width="1.51"/><path d="M-48,385L18,520L159,421Z" fill="#e48f82" stroke="#e48f82" stroke-width="1.51"/><path d="M21,672L81,701L97,577Z" fill="#dd928a" stroke="#dd928a" stroke-width="1.51"/><path d="M35,1124L-42,1305L102,1310Z" fill="#7d3a37" stroke="#7d3a37" stroke-width="1.51"/><path d="M35,1124L102,1310L110,1137Z" fill="#8b4943" stroke="#8b4943" stroke-width="1.51"/><path d="M-55,-225L87,-108L111,-246Z" fill="#a41d2b" stroke="#a41d2b" stroke-width="1.51"/><path d="M-61,143L16,248L119,187Z" fill="#d56653" stroke="#d56653" stroke-width="1.51"/><path d="M-61,143L119,187L123,66Z" fill="#d25d4d" stroke="#d25d4d" stroke-width="1.51"/><path d="M28,-46L-61,143L123,66Z" fill="#c8473f" stroke="#c8473f" stroke-width="1.51"/><path d="M81,701L14,827L95,796Z" fill="#d0857e" stroke="#d0857e" stroke-width="1.51"/><path d="M21,672L14,827L81,701Z" fill="#d38780" stroke="#d38780" stroke-width="1.51"/><path d="M18,520L21,672L97,577Z" fill="#e2958d" stroke="#e2958d" stroke-width="1.51"/><path d="M-55,-225L28,-46L87,-108Z" fill="#b21c2c" stroke="#b21c2c" stroke-width="1.51"/><path d="M-201,720L14,827L21,672Z" fill="#c67e7a" stroke="#c67e7a" stroke-width="1.51"/><path d="M18,520L-187,595L21,672Z" fill="#d58c87" stroke="#d58c87" stroke-width="1.51"/><path d="M-55,-225L-157,-78L28,-46Z" fill="#a8162a" stroke="#a8162a" stroke-width="1.51"/><path d="M-157,-78L-61,143L28,-46Z" fill="#b63636" stroke="#b63636" stroke-width="1.51"/><path d="M-175,1170L-42,1305L35,1124Z" fill="#7a3b3a" stroke="#7a3b3a" stroke-width="1.51"/><path d="M-199,957L-175,1170L35,1124Z" fill="#894c4b" stroke="#894c4b" stroke-width="1.51"/><path d="M14,827L-168,857L40,952Z" fill="#b8706c" stroke="#b8706c" stroke-width="1.51"/><path d="M-168,857L-199,957L40,952Z" fill="#a56564" stroke="#a56564" stroke-width="1.51"/><path d="M-199,957L35,1124L40,952Z" fill="#a25c59" stroke="#a25c59" stroke-width="1.51"/><path d="M-157,-78L-180,103L-61,143Z" fill="#b03d3a" stroke="#b03d3a" stroke-width="1.51"/><path d="M-201,720L-168,857L14,827Z" fill="#b47372" stroke="#b47372" stroke-width="1.51"/><path d="M-193,234L-48,385L16,248Z" fill="#cd6f61" stroke="#cd6f61" stroke-width="1.51"/><path d="M-187,595L-201,720L21,672Z" fill="#c2817f" stroke="#c2817f" stroke-width="1.51"/><path d="M-48,385L-187,595L18,520Z" fill="#d68b85" stroke="#d68b85" stroke-width="1.51"/><path d="M-61,143L-193,234L16,248Z" fill="#c76152" stroke="#c76152" stroke-width="1.51"/><path d="M-201,-192L-157,-78L-55,-225Z" fill="#910d26" stroke="#910d26" stroke-width="1.51"/><path d="M-193,234L-182,382L-48,385Z" fill="#c37268" stroke="#c37268" stroke-width="1.51"/><path d="M-182,382L-187,595L-48,385Z" fill="#c8817c" stroke="#c8817c" stroke-width="1.51"/><path d="M-175,1170L-208,1299L-42,1305Z" fill="#632d2f" stroke="#632d2f" stroke-width="1.51"/><path d="M-180,103L-193,234L-61,143Z" fill="#b85349" stroke="#b85349" stroke-width="1.51"/><path d="M-201,-192L-180,103L-157,-78Z" fill="#9c222d" stroke="#9c222d" stroke-width="1.51"/><path d="M-201,720L-199,957L-168,857Z" fill="#a26a6b" stroke="#a26a6b" stroke-width="1.51"/><path d="M-199,957L-208,1299L-175,1170Z" fill="#713d40" stroke="#713d40" stroke-width="1.51"/><path d="M-201,-192L-193,234L-180,103Z" fill="#a63737" stroke="#a63737" stroke-width="1.51"/><path d="M-193,234L-201,720L-187,595Z" fill="#c08483" stroke="#c08483" stroke-width="1.51"/><path d="M-193,234L-187,595L-182,382Z" fill="#be7873" stroke="#be7873" stroke-width="1.51"/><path d="M-201,-192L-201,720L-193,234Z" fill="#b66157" stroke="#b66157" stroke-width="1.51"/><path d="M-201,720L-208,1299L-199,957Z" fill="#8a5557" stroke="#8a5557" stroke-width="1.51"/></svg>